<svg width="117" height="46" viewBox="0 0 117 46" fill="none" xmlns="http://www.w3.org/2000/svg">
<path d="M21.1099 38L0.164921 2.27314L0 2H5.99215L7.20157 3.91199H5.99215L17.5916 23.1958L18.2513 19.2625L22.7042 20.8467L12.9738 3.7481H12.0393L10.9948 2H16.3272L29.0812 24.3429L27.4869 27.1836L21.6597 25.1077L23.144 34.6677L21.1099 38Z" fill="white"/>
<path d="M19.8456 3.7481L18.801 2H24.4084L30.6754 12.7071L36.6675 2H42L41.1754 3.58422H40.4607L30.7304 21.393L20.4503 3.7481H19.8456Z" fill="white"/>
<path d="M34.5859 20.5391L41.7734 20.6172C41.3568 22.2057 41.0443 23.5599 40.8359 24.6797C40.6536 25.7995 40.5365 26.737 40.4844 27.4922C40.3802 28.3516 40.3542 29.0807 40.4062 29.6797C40.4844 30.2266 40.6146 30.8125 40.7969 31.4375C40.9531 31.9583 41.1875 32.5573 41.5 33.2344C41.8125 33.9115 42.2292 34.5885 42.75 35.2656C42.4375 35.1615 42.099 35.0833 41.7344 35.0312C41.3698 34.9792 41.0312 34.9401 40.7188 34.9141C40.3542 34.888 39.9896 34.888 39.625 34.9141C39.2604 34.9401 38.8568 34.9792 38.4141 35.0312C38.0495 35.0833 37.6068 35.1484 37.0859 35.2266C36.5651 35.3047 36.0182 35.4089 35.4453 35.5391C35.8359 34.3672 36.1354 33.3516 36.3438 32.4922C36.5781 31.6328 36.7474 30.9167 36.8516 30.3438C36.9557 29.6667 37.0208 29.1198 37.0469 28.7031C37.0469 28.1823 37.0469 27.5964 37.0469 26.9453C37.0469 26.2682 37.0469 25.6172 37.0469 24.9922C37.0469 24.3672 37.0339 23.8203 37.0078 23.3516C36.9818 22.8568 36.9297 22.5443 36.8516 22.4141L36.4609 22.0234C36.3047 21.8932 36.0703 21.7109 35.7578 21.4766C35.4714 21.2161 35.0807 20.9036 34.5859 20.5391ZM37.3594 14.5234C37.9062 14.237 38.4531 14.1589 39 14.2891C39.5729 14.4193 40.0156 14.6667 40.3281 15.0312C40.6406 15.3958 40.7448 15.8255 40.6406 16.3203C40.5625 16.8151 40.1458 17.2969 39.3906 17.7656C38.6354 18.2083 37.9714 18.3646 37.3984 18.2344C36.8255 18.1042 36.4219 17.8307 36.1875 17.4141C35.9531 16.9974 35.9141 16.5156 36.0703 15.9688C36.2266 15.3958 36.6562 14.9141 37.3594 14.5234ZM43.7656 19.2891C44.2604 19.3151 44.7031 19.3281 45.0938 19.3281C45.5104 19.3021 45.862 19.276 46.1484 19.25C46.487 19.224 46.7865 19.1979 47.0469 19.1719C47.4375 19.1198 47.8411 19.0547 48.2578 18.9766C48.6224 18.9245 49 18.8594 49.3906 18.7812C49.8073 18.6771 50.2109 18.5599 50.6016 18.4297C50.4453 18.8203 50.3151 19.1589 50.2109 19.4453C50.1068 19.7318 50.0286 19.9792 49.9766 20.1875C49.8984 20.4219 49.8594 20.6172 49.8594 20.7734C49.8333 20.9557 49.8203 21.1771 49.8203 21.4375C49.7943 21.8802 49.7943 22.5964 49.8203 23.5859C51.1745 22.4141 52.3073 21.5026 53.2188 20.8516C54.1562 20.2005 54.8984 19.6927 55.4453 19.3281C56.0964 18.9115 56.6042 18.638 56.9688 18.5078C57.9323 18.3516 58.7786 18.5729 59.5078 19.1719C59.8203 19.4323 60.1198 19.7839 60.4062 20.2266C60.6927 20.6432 60.9401 21.2031 61.1484 21.9062C61.3568 22.6094 61.513 23.4557 61.6172 24.4453C61.7214 25.4089 61.7344 26.5677 61.6562 27.9219C61.1094 27.974 60.6146 28.026 60.1719 28.0781C59.7552 28.1302 59.4036 28.1693 59.1172 28.1953C58.7786 28.2474 58.4661 28.2734 58.1797 28.2734L57.125 28.3906C56.7604 28.4427 56.3047 28.4948 55.7578 28.5469C55.237 28.5729 54.599 28.625 53.8438 28.7031C54.9375 27.8177 55.6406 27.0495 55.9531 26.3984C56.2917 25.7214 56.4349 25.1615 56.3828 24.7188C56.3307 24.224 56.0964 23.7943 55.6797 23.4297C55.1849 23.1432 54.651 23.0391 54.0781 23.1172C53.5833 23.1693 53.0104 23.3906 52.3594 23.7812C51.7083 24.1719 51.0182 24.901 50.2891 25.9688C50.3411 27.6354 50.3932 29.0156 50.4453 30.1094C50.5234 31.2031 50.5885 32.0885 50.6406 32.7656C50.7188 33.5469 50.7839 34.1589 50.8359 34.6016C50.9141 34.9922 51.0703 35.4089 51.3047 35.8516C51.487 36.2161 51.7474 36.6198 52.0859 37.0625C52.4245 37.5052 52.8672 37.9479 53.4141 38.3906C52.2682 38.3385 51.3307 38.3385 50.6016 38.3906C50.1589 38.4167 49.7682 38.4427 49.4297 38.4688C49.0651 38.5208 48.6745 38.5729 48.2578 38.625C47.8932 38.6771 47.4635 38.7292 46.9688 38.7812C46.5 38.8594 45.9792 38.9375 45.4062 39.0156C45.6146 38.7292 45.7839 38.3906 45.9141 38C46.0443 37.6354 46.1484 37.2839 46.2266 36.9453C46.3307 36.5547 46.4089 36.151 46.4609 35.7344C46.487 35.3698 46.5 34.8229 46.5 34.0938C46.526 33.3646 46.513 32.5443 46.4609 31.6328C46.4349 30.6953 46.3958 29.7318 46.3438 28.7422C46.2917 27.7266 46.2266 26.776 46.1484 25.8906C46.0703 25.0052 45.9792 24.237 45.875 23.5859C45.7969 22.9089 45.7057 22.4401 45.6016 22.1797C45.4714 21.8672 45.3151 21.5547 45.1328 21.2422C44.9766 20.9557 44.7812 20.6562 44.5469 20.3438C44.3125 20.0052 44.0521 19.6536 43.7656 19.2891ZM62.8281 13.3906C63.6094 13.4688 64.2604 13.5339 64.7812 13.5859C65.3281 13.638 65.7708 13.6771 66.1094 13.7031C66.5 13.7292 66.8125 13.7422 67.0469 13.7422C67.2812 13.7682 67.5938 13.7682 67.9844 13.7422C68.3229 13.7161 68.7656 13.6901 69.3125 13.6641C69.8594 13.612 70.5495 13.5339 71.3828 13.4297C71.2005 13.6901 71.0573 13.9245 70.9531 14.1328C70.849 14.3151 70.7578 14.4844 70.6797 14.6406L70.4453 15.1094C70.3932 15.2656 70.3411 15.4219 70.2891 15.5781C70.237 15.7083 70.1849 15.8646 70.1328 16.0469C70.1068 16.2292 70.0807 16.4245 70.0547 16.6328H76.0703L75.5234 19.7969L70.0156 19.4844C69.8854 20.8125 69.7943 21.8411 69.7422 22.5703C69.6901 23.2995 69.638 23.8333 69.5859 24.1719L69.5078 24.875C69.4297 25.8646 69.3516 26.9453 69.2734 28.1172C69.1953 29.263 69.1693 30.3307 69.1953 31.3203C69.2214 32.3099 69.3125 33.1432 69.4688 33.8203C69.625 34.4714 69.8984 34.7969 70.2891 34.7969C70.6797 34.7969 71.0443 34.6927 71.3828 34.4844C71.7214 34.276 72.0078 34.0286 72.2422 33.7422C72.5026 33.4557 72.6979 33.1693 72.8281 32.8828C72.9583 32.5703 73.0234 32.3359 73.0234 32.1797C73.0234 32.0234 72.9844 31.8411 72.9062 31.6328C72.776 31.2422 72.5417 30.7474 72.2031 30.1484C72.9583 30.3307 73.6224 30.513 74.1953 30.6953C74.4818 30.7995 74.7422 30.9036 74.9766 31.0078C75.237 31.112 75.5365 31.2292 75.875 31.3594C76.1615 31.4896 76.526 31.6458 76.9688 31.8281C77.4115 32.0104 77.9323 32.2318 78.5312 32.4922C77.9583 32.5964 77.5417 32.7656 77.2812 33C77.125 33.1042 77.0078 33.2214 76.9297 33.3516C76.7474 33.638 76.5391 34.0286 76.3047 34.5234C76.0703 34.9922 75.7188 35.4609 75.25 35.9297C74.7812 36.3984 74.1432 36.8151 73.3359 37.1797C72.5547 37.5443 71.5 37.7526 70.1719 37.8047C68.7917 37.8568 67.737 37.6224 67.0078 37.1016C66.3047 36.5807 65.7839 35.9818 65.4453 35.3047C65.1328 34.6016 64.9505 33.9115 64.8984 33.2344C64.8464 32.5573 64.8073 32.1016 64.7812 31.8672C64.7552 31.6328 64.7552 31.0469 64.7812 30.1094C64.8073 29.1719 64.8464 28.1432 64.8984 27.0234C64.9505 25.8776 65.0026 24.7839 65.0547 23.7422C65.1068 22.6745 65.1328 21.8932 65.1328 21.3984C65.1328 21.138 65.1458 20.8646 65.1719 20.5781C65.1719 20.3438 65.1719 20.0964 65.1719 19.8359C65.1979 19.5495 65.2109 19.276 65.2109 19.0156L59.5469 18.9766L59.3125 16.75L65.0156 16.9062C64.9635 16.6198 64.8984 16.3594 64.8203 16.125C64.7682 15.8646 64.7161 15.6562 64.6641 15.5C64.5859 15.3177 64.5078 15.1615 64.4297 15.0312C64.3255 14.901 64.2083 14.7578 64.0781 14.6016C63.9479 14.4714 63.7786 14.3021 63.5703 14.0938C63.362 13.8854 63.1146 13.651 62.8281 13.3906ZM77.125 20.0312C77.8021 20.1615 78.388 20.2656 78.8828 20.3438C79.4036 20.3958 79.8464 20.4479 80.2109 20.5C80.6276 20.5521 80.9922 20.5911 81.3047 20.6172C81.6172 20.6432 81.9818 20.6693 82.3984 20.6953C83.1016 20.7214 84.0911 20.7214 85.3672 20.6953C84.612 20.6432 84.013 20.8385 83.5703 21.2812C83.1536 21.6979 82.8411 22.1797 82.6328 22.7266C82.3724 23.3776 82.2292 24.1328 82.2031 24.9922C82.151 26.138 82.1771 27.1797 82.2812 28.1172C82.4115 29.0286 82.6328 29.8099 82.9453 30.4609C83.2839 31.0859 83.7266 31.5547 84.2734 31.8672C84.8203 32.1536 85.5234 32.2318 86.3828 32.1016C87.2422 31.9714 87.8932 31.6719 88.3359 31.2031C88.8047 30.7083 89.1432 30.1094 89.3516 29.4062C89.5599 28.6771 89.6771 27.8568 89.7031 26.9453C89.7552 26.0339 89.7943 25.0833 89.8203 24.0938C89.8203 23.1042 89.8073 22.401 89.7812 21.9844C89.7812 21.5417 89.7682 21.2552 89.7422 21.125C89.7161 20.9948 89.6771 20.9427 89.625 20.9688C89.5729 20.9688 89.5078 20.9036 89.4297 20.7734C89.3776 20.6693 89.2995 20.5651 89.1953 20.4609C89.1172 20.3568 89.013 20.2396 88.8828 20.1094C88.7526 19.9531 88.6094 19.7969 88.4531 19.6406C89.1302 19.6667 89.7292 19.6927 90.25 19.7188C90.7969 19.7188 91.2526 19.7318 91.6172 19.7578C92.0339 19.7839 92.3984 19.8099 92.7109 19.8359C92.9974 19.862 93.375 19.901 93.8438 19.9531C94.2344 20.0052 94.7422 20.0573 95.3672 20.1094C95.9922 20.1615 96.7344 20.2396 97.5938 20.3438C96.9948 20.474 96.513 20.6693 96.1484 20.9297C95.7839 21.1901 95.4974 21.4505 95.2891 21.7109C95.0547 21.9974 94.8854 22.3099 94.7812 22.6484C94.7031 23.0911 94.7031 23.7682 94.7812 24.6797C94.8333 25.487 94.9635 26.5938 95.1719 28C95.3802 29.4062 95.7057 31.2552 96.1484 33.5469L93.0625 35.3828L92.4375 30.1875C91.6823 31.4635 90.875 32.4531 90.0156 33.1562C89.1823 33.8333 88.401 34.3281 87.6719 34.6406C86.8125 35.0052 85.9792 35.2135 85.1719 35.2656C84.1042 35.2656 83.1797 35.2005 82.3984 35.0703C81.6432 34.9141 80.9922 34.7188 80.4453 34.4844C79.8984 34.25 79.4557 33.9896 79.1172 33.7031C78.8047 33.3906 78.5703 33.0781 78.4141 32.7656C78.0495 32.1146 77.8542 31.2812 77.8281 30.2656C77.8021 29.224 77.8411 28.1953 77.9453 27.1797C78.0495 26.138 78.1667 25.1875 78.2969 24.3281C78.4271 23.4688 78.4661 22.8828 78.4141 22.5703C78.362 22.3359 78.2839 22.0755 78.1797 21.7891C78.0755 21.5547 77.9453 21.2943 77.7891 21.0078C77.6328 20.6953 77.4115 20.3698 77.125 20.0312ZM115.406 15.6953C115.172 16.2682 114.964 16.7891 114.781 17.2578C114.625 17.7266 114.482 18.1432 114.352 18.5078C114.221 18.9245 114.104 19.2891 114 19.6016C113.896 19.9661 113.779 20.3828 113.648 20.8516C113.518 21.2682 113.349 21.7891 113.141 22.4141C112.958 23.013 112.737 23.7292 112.477 24.5625C112.268 23.3125 111.891 22.3229 111.344 21.5938C110.797 20.8385 110.237 20.2526 109.664 19.8359C108.987 19.3672 108.258 19.0286 107.477 18.8203C106.07 18.5859 105.055 18.612 104.43 18.8984C103.805 19.1849 103.388 19.5495 103.18 19.9922C103.076 20.1745 102.958 20.4089 102.828 20.6953C102.724 20.9557 102.633 21.2292 102.555 21.5156C102.503 21.8021 102.49 22.0885 102.516 22.375C102.542 22.6615 102.659 22.8958 102.867 23.0781C102.997 23.2083 103.336 23.3906 103.883 23.625C104.43 23.8333 105.081 24.0807 105.836 24.3672C106.617 24.6276 107.438 24.9141 108.297 25.2266C109.182 25.5391 110.016 25.8516 110.797 26.1641C111.578 26.4766 112.255 26.7891 112.828 27.1016C113.401 27.4141 113.779 27.7005 113.961 27.9609C114.117 28.2214 114.286 28.5729 114.469 29.0156C114.677 29.4323 114.82 29.901 114.898 30.4219C115.003 30.9167 115.029 31.4375 114.977 31.9844C114.951 32.5052 114.807 33.026 114.547 33.5469C114.286 34.0677 113.87 34.5495 113.297 34.9922C112.75 35.4349 112.008 35.7995 111.07 36.0859C109.977 36.4245 108.922 36.5156 107.906 36.3594C106.891 36.2031 105.953 35.9688 105.094 35.6562C104.26 35.3438 103.531 35.0443 102.906 34.7578C102.281 34.4453 101.839 34.3151 101.578 34.3672C101.292 34.4193 100.966 34.5625 100.602 34.7969C100.237 35.0312 99.8854 35.2786 99.5469 35.5391C99.2344 35.7734 98.9609 35.9948 98.7266 36.2031C98.4922 36.3854 98.375 36.4505 98.375 36.3984C98.375 36.3464 98.4141 36.1901 98.4922 35.9297C98.5964 35.6693 98.7005 35.3568 98.8047 34.9922C98.9349 34.6016 99.0521 34.1849 99.1562 33.7422C99.2865 33.2734 99.3776 32.8307 99.4297 32.4141C99.4818 32.0755 99.5469 31.6589 99.625 31.1641C99.6771 30.7214 99.7422 30.1875 99.8203 29.5625C99.9245 28.9115 100.042 28.1302 100.172 27.2188C100.302 27.8958 100.484 28.4818 100.719 28.9766C100.979 29.4714 101.227 29.901 101.461 30.2656C101.747 30.6823 102.021 31.0339 102.281 31.3203C102.672 31.6849 103.128 32.0234 103.648 32.3359C104.195 32.6484 104.742 32.9219 105.289 33.1562C105.836 33.3646 106.357 33.4948 106.852 33.5469C107.346 33.599 107.763 33.5469 108.102 33.3906C108.44 33.2344 108.727 32.9479 108.961 32.5312C109.221 32.1146 109.404 31.6589 109.508 31.1641C109.612 30.6693 109.651 30.2005 109.625 29.7578C109.599 29.2891 109.482 28.9115 109.273 28.625C109.117 28.4427 108.753 28.2083 108.18 27.9219C107.633 27.6354 106.969 27.3229 106.188 26.9844C105.432 26.6458 104.625 26.2943 103.766 25.9297C102.932 25.5651 102.138 25.2005 101.383 24.8359C100.654 24.4453 100.042 24.0807 99.5469 23.7422C99.0781 23.3776 98.8177 23.0521 98.7656 22.7656C98.7135 22.349 98.6745 21.8932 98.6484 21.3984C98.6224 20.8776 98.6484 20.3698 98.7266 19.875C98.8307 19.3542 99.013 18.8594 99.2734 18.3906C99.5599 17.9219 99.9766 17.5312 100.523 17.2188C100.888 17.0104 101.37 16.8542 101.969 16.75C102.568 16.6458 103.232 16.5938 103.961 16.5938C104.69 16.5677 105.445 16.5938 106.227 16.6719C107.008 16.724 107.75 16.8021 108.453 16.9062C109.182 16.9844 109.833 17.0885 110.406 17.2188C111.005 17.349 111.461 17.4661 111.773 17.5703C112.138 17.7005 112.529 17.7135 112.945 17.6094C113.31 17.5312 113.701 17.362 114.117 17.1016C114.534 16.8411 114.964 16.3724 115.406 15.6953Z" fill="white"/>
</svg>
