<svg width="45" height="45" viewBox="0 0 45 45" fill="none" xmlns="http://www.w3.org/2000/svg">
<g clip-path="url(#clip0_8_16)">
<path d="M45 34.8525C44.3451 35.1002 43.6221 35.0997 42.9676 34.851C42.313 34.6023 41.7721 34.1226 41.4469 33.5025L34.9781 24.5569L34.0406 23.3063L26.535 33.5138C26.2294 34.1079 25.7178 34.5703 25.096 34.8146C24.4741 35.0589 23.7846 35.0684 23.1563 34.8413L32.8275 21.8663L23.8313 10.1456C24.4781 9.91253 25.1856 9.90944 25.8344 10.1369C26.4833 10.3643 27.034 10.8084 27.3938 11.3944L34.0988 20.4506L40.8413 11.4319C41.1493 10.8484 41.661 10.3984 42.2791 10.1674C42.8972 9.93652 43.5786 9.94077 44.1938 10.1794L40.7025 14.8125L35.9738 20.9681C35.8424 21.0853 35.7374 21.2289 35.6654 21.3895C35.5935 21.55 35.5563 21.724 35.5563 21.9C35.5563 22.076 35.5935 22.25 35.6654 22.4106C35.7374 22.5712 35.8424 22.7147 35.9738 22.8319L44.9813 34.8544L45 34.8525ZM0.00377249 21.705L0.791272 17.8144C2.95502 10.1213 11.775 6.92064 17.8425 11.6831C21.3956 14.475 22.2825 18.4275 22.1081 22.8825H2.09252C1.76815 30.8381 7.5094 35.6419 14.85 33.1875C16.04 32.7592 17.1052 32.0423 17.9501 31.1012C18.795 30.1601 19.3932 29.0241 19.6913 27.795C20.0794 26.5463 20.7188 26.3325 21.8925 26.6925C21.6969 28.2157 21.1585 29.6748 20.3177 30.9599C19.4768 32.245 18.3556 33.3227 17.0381 34.1119C14.8621 35.3022 12.3653 35.774 9.90494 35.4598C7.44456 35.1456 5.14652 34.0615 3.3394 32.3625C1.55258 30.3514 0.472665 27.8109 0.264397 25.1288C0.264397 24.6881 0.114397 24.2756 0.0131475 23.88C0.00402005 23.1557 -0.000355045 22.4313 2.2493e-05 21.7069L0.00377249 21.705ZM2.1169 21.1688H20.2181C20.1056 15.4013 16.4663 11.31 11.6119 11.2725C6.20815 11.1975 2.3419 15.1988 2.10377 21.1425L2.1169 21.1688Z" fill="white"/>
</g>
<defs>
<clipPath id="clip0_8_16">
<rect width="45" height="45" fill="white"/>
</clipPath>
</defs>
</svg>
