<svg width="45" height="45" viewBox="0 0 45 45" fill="none" xmlns="http://www.w3.org/2000/svg">
<g clip-path="url(#clip0_8_13)">
<path d="M22.5 45.5C34.9264 45.5 45 35.4264 45 23C45 10.5736 34.9264 0.5 22.5 0.5C10.0736 0.5 0 10.5736 0 23C0 35.4264 10.0736 45.5 22.5 45.5Z" fill="#13AA52"/>
<path d="M28.5143 19.7508C27.0931 13.4785 23.7344 11.4161 23.3727 10.6282C22.9772 10.0723 22.5764 9.0835 22.5764 9.0835C22.5698 9.0668 22.5593 9.03735 22.547 9.00879C22.5061 9.5647 22.485 9.77915 21.9594 10.3399C21.1456 10.9762 16.9699 14.48 16.6302 21.6062C16.3134 28.2524 21.4312 32.2128 22.1234 32.7177L22.202 32.7735V32.7687C22.2064 32.8021 22.4217 34.3507 22.5729 35.9916H23.1152C23.2424 34.8317 23.4332 33.6797 23.6865 32.5406L23.7304 32.5121C24.04 32.2901 24.3352 32.0486 24.6142 31.7892L24.6458 31.7606C26.1171 30.4014 28.7622 27.2575 28.7363 22.2451C28.7308 21.409 28.6565 20.5747 28.5143 19.7508ZM22.5154 28.9652C22.5154 28.9652 22.5154 19.6436 22.823 19.6453C23.0629 19.6453 23.3736 31.6692 23.3736 31.6692C22.9465 31.6178 22.5154 29.6903 22.5154 28.9652Z" fill="white"/>
</g>
<defs>
<clipPath id="clip0_8_13">
<rect width="45" height="45" fill="white"/>
</clipPath>
</defs>
</svg>
