<svg width="45" height="45" viewBox="0 0 45 45" fill="none" xmlns="http://www.w3.org/2000/svg">
<g clip-path="url(#clip0_7_7)">
<path d="M0 7.75875C0 3.47371 3.47371 0 7.75875 0H37.2412C41.5263 0 45 3.47371 45 7.75875V32.8337C45 37.2662 39.39 39.19 36.67 35.6912L28.1637 24.7488V38.0175C28.1637 41.8738 25.0376 45 21.1813 45H7.75875C3.47371 45 0 41.5263 0 37.2412V7.75875ZM7.75875 6.2075C6.90125 6.2075 6.2075 6.90125 6.2075 7.7575V37.2412C6.2075 38.0987 6.90125 38.7937 7.7575 38.7937H21.4137C21.8425 38.7937 21.9563 38.4462 21.9563 38.0175V20.225C21.9563 15.7912 27.5662 13.8675 30.2875 17.3675L38.7937 28.3088V7.75875C38.7937 6.90125 38.8737 6.2075 38.0175 6.2075H7.75875Z" fill="#00E0D9"/>
<path d="M0 7.75875C0 3.47371 3.47371 0 7.75875 0H37.2412C41.5263 0 45 3.47371 45 7.75875V32.8337C45 37.2662 39.39 39.19 36.67 35.6912L28.1637 24.7488V38.0175C28.1637 41.8738 25.0376 45 21.1813 45H7.75875C3.47371 45 0 41.5263 0 37.2412V7.75875ZM7.75875 6.2075C6.90125 6.2075 6.2075 6.90125 6.2075 7.7575V37.2412C6.2075 38.0987 6.90125 38.7937 7.7575 38.7937H21.4137C21.8425 38.7937 21.9563 38.4462 21.9563 38.0175V20.225C21.9563 15.7912 27.5662 13.8675 30.2875 17.3675L38.7937 28.3088V7.75875C38.7937 6.90125 38.8737 6.2075 38.0175 6.2075H7.75875Z" fill="url(#paint0_linear_7_7)"/>
<path d="M0 7.75875C0 3.47371 3.47371 0 7.75875 0H37.2412C41.5263 0 45 3.47371 45 7.75875V32.8337C45 37.2662 39.39 39.19 36.67 35.6912L28.1637 24.7488V38.0175C28.1637 41.8738 25.0376 45 21.1813 45H7.75875C3.47371 45 0 41.5263 0 37.2412V7.75875ZM7.75875 6.2075C6.90125 6.2075 6.2075 6.90125 6.2075 7.7575V37.2412C6.2075 38.0987 6.90125 38.7937 7.7575 38.7937H21.4137C21.8425 38.7937 21.9563 38.4462 21.9563 38.0175V20.225C21.9563 15.7912 27.5662 13.8675 30.2875 17.3675L38.7937 28.3088V7.75875C38.7937 6.90125 38.8737 6.2075 38.0175 6.2075H7.75875Z" fill="url(#paint1_linear_7_7)" fill-opacity="0.4"/>
<path d="M37.2412 0C41.5263 0 45 3.47371 45 7.75875V32.8337C45 37.2662 39.39 39.19 36.67 35.6912L28.1637 24.7488V38.0175C28.1637 41.8738 25.0376 45 21.1812 45C21.3868 45 21.5839 44.9183 21.7293 44.773C21.8746 44.6277 21.9562 44.4305 21.9562 44.225V20.225C21.9562 15.7912 27.5662 13.8675 30.2875 17.3675L38.7937 28.3088V1.55125C38.7937 0.695 38.0987 0 37.2412 0Z" fill="#63F655"/>
</g>
<defs>
<linearGradient id="paint0_linear_7_7" x1="4500" y1="4500" x2="543.125" y2="-0.000147759" gradientUnits="userSpaceOnUse">
<stop stop-color="#62F755"/>
<stop offset="1" stop-color="#8FF986" stop-opacity="0"/>
</linearGradient>
<linearGradient id="paint1_linear_7_7" x1="4500" y1="4500" x2="1827.13" y2="3460.38" gradientUnits="userSpaceOnUse">
<stop stop-opacity="0.9"/>
<stop offset="1" stop-color="#1A1A1A" stop-opacity="0"/>
</linearGradient>
<clipPath id="clip0_7_7">
<rect width="45" height="45" fill="white"/>
</clipPath>
</defs>
</svg>
