<svg width="45" height="53" viewBox="0 0 45 53" fill="none" xmlns="http://www.w3.org/2000/svg">
<path d="M36.0734 25.754C39.3364 25.971 42.2561 23.7442 42.8961 20.5431C42.1086 19.3252 40.7623 18.5929 39.3132 18.5929C35.5462 18.5067 33.5251 22.9853 36.0751 25.7556L36.0734 25.754ZM20.8579 7.77675L29.7432 2.63377L26.9113 1.03819L14.6569 8.13132L15.6335 8.67478L17.4888 9.71696L20.8579 7.76846V7.77675ZM30.8822 2.1599C31.0298 2.20464 31.1491 2.32559 31.1939 2.4714L35.3124 15.0521C35.3903 15.2692 35.3041 15.5028 35.1052 15.6221C31.8422 17.5375 30.2704 21.403 31.2635 25.0548C32.3512 29.0164 36.1331 31.6044 40.2185 31.1902C40.4423 31.172 40.6578 31.3112 40.7275 31.5266L44.9769 44.4552C45.0449 44.6723 44.9587 44.9043 44.7697 45.0252L31.7394 52.9302C31.678 52.965 31.6001 52.9899 31.5222 52.9899C31.4095 53.0164 31.2901 52.9899 31.1856 52.9219L26.6012 49.9445C26.5216 49.8931 26.4619 49.8169 26.4205 49.7308L17.4739 28.3636L3.84671 36.4409C3.82018 36.4591 3.78536 36.4757 3.76049 36.4939C3.62122 36.5536 3.45707 36.5353 3.32775 36.4591L0.245511 34.6481C0.0200222 34.5272 -0.0661943 34.2422 0.0548403 34.0169L13.241 7.92255C13.2824 7.82811 13.3687 7.75024 13.4648 7.7055L26.6609 0.0689099C26.8068 -0.0172482 26.9875 -0.0255326 27.1451 0.0606255L30.8822 2.1599ZM17.0843 10.61L13.881 8.80567L1.12591 34.0384L3.44049 35.402L14.4348 20.4652C14.5392 20.3177 14.7116 20.2398 14.8841 20.2664C15.0565 20.2846 15.2024 20.3939 15.2737 20.5596L27.2578 49.2171L30.4627 51.2899L17.0942 10.61H17.0843ZM39.3115 28.1018C35.5711 28.1018 33.0326 24.3042 34.4652 20.8512C35.891 17.3999 40.3726 16.5119 43.0139 19.1529C44.0004 20.1355 44.5525 21.4659 44.5525 22.8561C44.5608 25.754 42.2114 28.1018 39.3115 28.1018Z" fill="white"/>
</svg>
